<svg width="16" height="13" viewBox="0 0 16 13" fill="none" xmlns="http://www.w3.org/2000/svg">
<path fill-rule="evenodd" clip-rule="evenodd" d="M16 2.5H0V1.75C0 1.06 0.448 0.5 1 0.5H15C15.552 0.5 16 1.06 16 1.75V2.5ZM16 5V11.5C16 11.7652 15.8946 12.0196 15.7071 12.2071C15.5196 12.3946 15.2652 12.5 15 12.5H1C0.734784 12.5 0.48043 12.3946 0.292893 12.2071C0.105357 12.0196 0 11.7652 0 11.5V5H16ZM4 8.5C3.73478 8.5 3.48043 8.60536 3.29289 8.79289C3.10536 8.98043 3 9.23478 3 9.5C3 9.76522 3.10536 10.0196 3.29289 10.2071C3.48043 10.3946 3.73478 10.5 4 10.5H5C5.26522 10.5 5.51957 10.3946 5.70711 10.2071C5.89464 10.0196 6 9.76522 6 9.5C6 9.23478 5.89464 8.98043 5.70711 8.79289C5.51957 8.60536 5.26522 8.5 5 8.5H4Z" fill="#727F96"/>
</svg>
