<svg width="96" height="95" viewBox="0 0 96 95" fill="none" xmlns="http://www.w3.org/2000/svg">
<circle cx="48" cy="47.5" r="47.5" fill="#D32F2F"/>
<path d="M22.976 43.525L29.4997 37.0012C29.8054 36.6954 30.2205 36.5234 30.6524 36.5234H32.2807V46.3059H22.4982V44.6777C22.4982 44.2457 22.6702 43.8307 22.976 43.525Z" fill="white"/>
<path d="M33.9145 49.5668C34.8148 49.5668 35.5449 48.8368 35.5449 47.9364V36.5234H38.2623C39.1626 36.5234 39.8927 37.2534 39.8927 38.1539V57.7188C39.8927 58.4293 39.4375 59.032 38.8034 59.2553C38.8038 59.2868 38.8058 59.3177 38.8058 59.3493C38.8058 62.9455 35.8805 65.871 32.2841 65.871C28.6879 65.871 25.7624 62.9456 25.7624 59.3493H24.132C23.2316 59.3493 22.5015 58.6193 22.5015 57.7188V49.5668H33.9145ZM32.284 62.6101C34.0821 62.6101 35.5448 61.1474 35.5448 59.3493C35.5448 59.0336 35.4988 58.7284 35.4147 58.4395C35.386 58.3816 35.3594 58.3222 35.3374 58.2603C34.9054 57.0478 33.8076 56.2074 32.5545 56.1007C32.5424 56.0997 32.5303 56.0987 32.5182 56.0979C32.4406 56.0921 32.3626 56.0885 32.284 56.0885C32.2054 56.0885 32.1275 56.0921 32.0499 56.0979C32.0377 56.0987 32.0257 56.0996 32.0136 56.1007C30.7606 56.2074 29.6628 57.0478 29.2307 58.2603C29.2087 58.3222 29.182 58.3816 29.1534 58.4395C29.0692 58.7286 29.0233 59.0336 29.0233 59.3493C29.0232 61.1474 30.4859 62.6101 32.284 62.6101Z" fill="white"/>
<path d="M44.7827 30H70.8692C71.7693 30 72.4997 30.7303 72.4997 31.6304V49.565H43.1523V31.6304C43.1523 30.7303 43.8826 30 44.7827 30Z" fill="white"/>
<path d="M72.4997 52.8164V57.7076C72.4997 58.608 71.7697 59.3381 70.8692 59.3381H69.2388C69.2388 62.9343 66.3135 65.8598 62.7171 65.8598C59.1209 65.8598 56.1954 62.9344 56.1954 59.3381H44.7825C43.8821 59.3381 43.1521 58.6081 43.1521 57.7076V52.8164H72.4997ZM62.7172 62.5989C64.5153 62.5989 65.978 61.1362 65.978 59.3381C65.978 59.0224 65.932 58.7172 65.8479 58.4282C65.8192 58.3703 65.7926 58.311 65.7706 58.249C65.3386 57.0366 64.2408 56.1961 62.9877 56.0894C62.9756 56.0884 62.9635 56.0875 62.9514 56.0866C62.8738 56.0809 62.7958 56.0773 62.7172 56.0773C62.6386 56.0773 62.5607 56.0809 62.4831 56.0867C62.4709 56.0876 62.4589 56.0884 62.4468 56.0895C61.1937 56.1962 60.096 57.0368 59.6639 58.2491C59.6419 58.3111 59.6152 58.3704 59.5866 58.4283C59.5024 58.7174 59.4565 59.0224 59.4565 59.3382C59.4564 61.1362 60.9191 62.5989 62.7172 62.5989Z" fill="white"/>
</svg>
