<svg version="1.1" id="Layer_1" xmlns="http://www.w3.org/2000/svg" xmlns:xlink="http://www.w3.org/1999/xlink" x="0px" y="0px" width="100%" viewBox="0 0 1024 1024" enable-background="new 0 0 1024 1024" xml:space="preserve">

<path fill="#F30502" opacity="1.000000" stroke="none" d="
M282.000122,94.330177 
	C312.328430,94.322929 342.156982,94.366585 371.984802,94.244171 
	C375.719788,94.228844 378.464539,95.146217 381.202881,97.903587 
	C421.827393,138.811111 462.575226,179.596146 503.300446,220.403641 
	C504.335175,221.440445 505.444000,222.403320 506.884399,223.740601 
	C515.854431,214.729965 524.632874,205.881332 533.444397,197.065735 
	C566.543274,163.951706 599.674500,130.869980 632.713928,97.696823 
	C635.135254,95.265762 637.588806,94.277100 641.021973,94.282471 
	C703.177979,94.379761 765.334290,94.327095 827.490112,94.491920 
	C829.946167,94.498428 833.032349,95.703308 834.758606,97.421242 
	C885.423340,147.842987 935.976929,198.376617 986.405273,249.034698 
	C988.234863,250.872604 989.546082,254.147446 989.545105,256.751984 
	C989.520996,324.406250 989.265076,392.060425 989.170105,459.714752 
	C989.165222,463.161377 988.138855,465.529327 985.714050,467.949188 
	C892.781433,560.692017 799.912537,653.498657 707.043640,746.305298 
	C668.035583,785.287109 629.026367,824.267822 590.096252,863.327393 
	C587.665710,865.766052 585.228149,866.750305 581.793640,866.746948 
	C536.301636,866.702637 490.809265,866.750427 445.317657,866.937622 
	C441.652008,866.952698 439.166656,865.796448 436.637756,863.264648 
	C348.793915,775.321838 260.882935,687.446106 172.991104,599.551208 
	C127.986015,554.544556 83.017387,509.501343 37.954224,464.552887 
	C35.510654,462.115540 34.511425,459.684692 34.526863,456.251862 
	C34.825146,389.931061 35.044441,323.609863 35.154488,257.288513 
	C35.160759,253.508133 36.224354,250.776382 38.897114,248.100327 
	C89.174385,197.760757 139.353073,147.322708 189.675064,97.027977 
	C191.295685,95.408234 194.209961,94.291183 196.527298,94.280617 
	C224.850906,94.151421 253.175644,94.273346 282.000122,94.330177 
M563.800354,626.105835 
	C558.522095,634.844055 550.614563,640.565735 540.993164,642.773804 
	C530.364197,645.212952 519.401367,647.012085 508.526245,647.379333 
	C490.771393,647.978943 473.200623,645.787903 457.223419,637.083801 
	C442.566620,629.098938 434.394562,616.557434 432.933563,599.900513 
	C432.506287,595.028931 432.867828,590.088074 432.867828,585.332153 
	C392.524323,585.332153 353.292297,585.332153 313.419617,585.332153 
	C314.280548,593.229492 314.925049,600.684021 315.928284,608.089966 
	C321.808655,651.497925 343.170227,685.380676 379.173431,710.092102 
	C407.393982,729.461670 438.990723,739.348450 472.748901,743.326111 
	C517.565247,748.606812 561.197937,744.552673 603.016357,726.887939 
	C628.505188,716.121094 650.104797,700.090210 666.163330,677.175171 
	C685.460815,649.638245 691.246765,618.817566 687.807922,585.971191 
	C685.516174,564.081238 677.693542,544.315796 662.679504,527.846802 
	C646.933899,510.575287 627.178345,499.039673 605.587280,491.261780 
	C568.370911,477.855072 530.691650,465.736572 493.254181,452.938416 
	C482.408478,449.230774 471.461945,445.632019 461.035522,440.932068 
	C448.760376,435.398743 444.184845,425.209167 447.028625,412.220917 
	C450.040100,398.466919 460.288391,391.894684 472.579742,388.162292 
	C488.651459,383.282043 505.165863,383.079376 521.536194,386.324280 
	C546.621277,391.296539 562.056152,408.074097 564.428467,431.784027 
	C564.802063,435.517609 565.204712,439.248291 565.604126,443.078400 
	C603.364563,443.078400 640.627808,443.078400 678.947754,443.078400 
	C677.197449,433.191376 675.953735,423.666870 673.791382,414.355652 
	C659.428528,352.506714 622.302673,312.288788 560.252625,296.477600 
	C530.668274,288.939117 500.486786,287.003845 470.017303,288.975494 
	C440.690155,290.873291 412.889679,297.786560 387.411041,312.913055 
	C336.285278,343.266052 316.813843,392.393646 325.365417,446.555359 
	C330.260986,477.561737 347.745697,500.852448 372.923920,518.805969 
	C395.829742,535.139221 421.489899,545.658691 448.104431,553.982422 
	C473.492279,561.922485 499.150116,569.007935 524.475403,577.135498 
	C537.156433,581.205261 549.318726,586.834595 558.894348,596.682068 
	C567.382629,605.411316 569.044800,614.554565 563.800354,626.105835 
z" data-index="1" style="opacity: 1;"></path>
<path fill="#FFFEFE" opacity="1.000000" stroke="none" d="
M563.963989,625.768127 
	C569.044800,614.554565 567.382629,605.411316 558.894348,596.682068 
	C549.318726,586.834595 537.156433,581.205261 524.475403,577.135498 
	C499.150116,569.007935 473.492279,561.922485 448.104431,553.982422 
	C421.489899,545.658691 395.829742,535.139221 372.923920,518.805969 
	C347.745697,500.852448 330.260986,477.561737 325.365417,446.555359 
	C316.813843,392.393646 336.285278,343.266052 387.411041,312.913055 
	C412.889679,297.786560 440.690155,290.873291 470.017303,288.975494 
	C500.486786,287.003845 530.668274,288.939117 560.252625,296.477600 
	C622.302673,312.288788 659.428528,352.506714 673.791382,414.355652 
	C675.953735,423.666870 677.197449,433.191376 678.947754,443.078400 
	C640.627808,443.078400 603.364563,443.078400 565.604126,443.078400 
	C565.204712,439.248291 564.802063,435.517609 564.428467,431.784027 
	C562.056152,408.074097 546.621277,391.296539 521.536194,386.324280 
	C505.165863,383.079376 488.651459,383.282043 472.579742,388.162292 
	C460.288391,391.894684 450.040100,398.466919 447.028625,412.220917 
	C444.184845,425.209167 448.760376,435.398743 461.035522,440.932068 
	C471.461945,445.632019 482.408478,449.230774 493.254181,452.938416 
	C530.691650,465.736572 568.370911,477.855072 605.587280,491.261780 
	C627.178345,499.039673 646.933899,510.575287 662.679504,527.846802 
	C677.693542,544.315796 685.516174,564.081238 687.807922,585.971191 
	C691.246765,618.817566 685.460815,649.638245 666.163330,677.175171 
	C650.104797,700.090210 628.505188,716.121094 603.016357,726.887939 
	C561.197937,744.552673 517.565247,748.606812 472.748901,743.326111 
	C438.990723,739.348450 407.393982,729.461670 379.173431,710.092102 
	C343.170227,685.380676 321.808655,651.497925 315.928284,608.089966 
	C314.925049,600.684021 314.280548,593.229492 313.419617,585.332153 
	C353.292297,585.332153 392.524323,585.332153 432.867828,585.332153 
	C432.867828,590.088074 432.506287,595.028931 432.933563,599.900513 
	C434.394562,616.557434 442.566620,629.098938 457.223419,637.083801 
	C473.200623,645.787903 490.771393,647.978943 508.526245,647.379333 
	C519.401367,647.012085 530.364197,645.212952 540.993164,642.773804 
	C550.614563,640.565735 558.522095,634.844055 563.963989,625.768127 
z" data-index="2" style="opacity: 1;"></path>
</svg>