<svg width="200" height="22" viewBox="0 0 200 22" fill="none"
                            xmlns="http://www.w3.org/2000/svg">
                            <path
                                d="M13.6086 3.65349L17.4874 0.09375H22.5613L27.2727 4.67045V10.1078L16.39 21.9119H10.8629L0 10.1667V4.65083L4.74206 0.09375H9.69517L13.6086 3.65349Z"
                                fill="#D32F2F" />
                            <path
                                d="M6.24023 4.99219H21.0328V8.70857H15.7976L15.7709 18.2664H11.6699L11.6832 8.68895L6.24023 8.68229V4.99219Z"
                                fill="#FCF7F2" />
                            <path
                                d="M32.4234 3.63666H49.3683V6.13226H32.4234V3.63666ZM39.364 2.23174H42.2386V19.7934H39.364V2.23174ZM38.721 12.7687L41.0472 13.7115C40.6185 14.34 40.1268 14.9439 39.572 15.5231C39.0299 16.1023 38.4436 16.6446 37.8132 17.1499C37.1829 17.6552 36.5209 18.1173 35.8275 18.5363C35.1341 18.9553 34.4281 19.3189 33.7094 19.627C33.5707 19.4051 33.3879 19.1525 33.161 18.8691C32.9466 18.5856 32.7197 18.3083 32.4801 18.0372C32.2406 17.7661 32.02 17.5442 31.8182 17.3717C32.5117 17.1375 33.1925 16.8541 33.8607 16.5213C34.5289 16.1886 35.1656 15.825 35.7708 15.4307C36.3886 15.024 36.9433 14.5988 37.435 14.1552C37.9393 13.6992 38.368 13.237 38.721 12.7687ZM42.9761 12.8796C43.3418 13.3233 43.7767 13.7608 44.2811 14.1921C44.798 14.6235 45.3653 15.0363 45.9831 15.4307C46.6009 15.825 47.2439 16.1824 47.9121 16.5029C48.5929 16.8233 49.2801 17.0944 49.9735 17.3162C49.7591 17.5011 49.5259 17.7353 49.2737 18.0187C49.0216 18.2898 48.782 18.5671 48.5551 18.8506C48.3408 19.1463 48.158 19.4175 48.0067 19.664C47.3006 19.3682 46.6072 19.0108 45.9264 18.5918C45.2456 18.1728 44.5899 17.7106 43.9596 17.2053C43.3292 16.7 42.7429 16.164 42.2008 15.5971C41.6586 15.0178 41.1669 14.4263 40.7257 13.8224L42.9761 12.8796ZM36.6596 11.4562V12.2141H45.0564V11.4562H36.6596ZM36.6596 8.88666V9.6261H45.0564V8.88666H36.6596ZM33.9742 6.90867H47.8743V14.1921H33.9742V6.90867Z"
                                fill="#D32F2F" />
                            <path
                                d="M51.3162 3.80304H68.1855V6.37258H51.3162V3.80304ZM58.2379 2.23174H61.1881V5.06008H58.2379V2.23174ZM56.1198 9.71853V11.3453H63.3441V9.71853H56.1198ZM53.3776 7.42628H66.2754V13.6375H53.3776V7.42628ZM62.7956 15.3013L65.3298 14.1182C65.708 14.5002 66.1052 14.9254 66.5212 15.3937C66.9499 15.8497 67.3533 16.3057 67.7316 16.7617C68.1224 17.2177 68.4376 17.6367 68.6772 18.0187L65.935 19.3497C65.7458 18.98 65.4748 18.561 65.1218 18.0926C64.7687 17.6243 64.3842 17.1437 63.9681 16.6507C63.5647 16.1578 63.1739 15.708 62.7956 15.3013ZM58.2946 12.7317H61.1881V17.0759C61.1881 17.7168 61.1062 18.2159 60.9423 18.5733C60.791 18.943 60.4758 19.2203 59.9967 19.4052C59.5302 19.59 59.0007 19.7009 58.4081 19.7379C57.8281 19.7749 57.1788 19.7934 56.4602 19.7934C56.4098 19.399 56.2963 18.9615 56.1198 18.4809C55.9559 18.0002 55.7857 17.5812 55.6092 17.2238C55.8739 17.2361 56.1639 17.2485 56.4791 17.2608C56.7943 17.2608 57.0843 17.2608 57.349 17.2608C57.6138 17.2608 57.7903 17.2608 57.8786 17.2608C58.0425 17.2608 58.1496 17.2423 58.2001 17.2053C58.2631 17.1684 58.2946 17.0944 58.2946 16.9835V12.7317ZM53.7369 14.1552L56.5358 15.024C56.2206 15.5169 55.8613 16.0222 55.4579 16.5398C55.0544 17.0451 54.6321 17.5257 54.1908 17.9817C53.7621 18.4254 53.3335 18.8198 52.9048 19.1648C52.6022 18.906 52.2303 18.6226 51.789 18.3145C51.3603 18.0187 50.9821 17.7784 50.6543 17.5935C51.0704 17.2978 51.4738 16.9588 51.8647 16.5768C52.2555 16.1824 52.6148 15.7757 52.9426 15.3567C53.2704 14.9254 53.5352 14.5249 53.7369 14.1552Z"
                                fill="#D32F2F" />
                            <path
                                d="M73.8401 10.2177H83.0879V9.47821H71.7219V7.31536H85.7923V12.3805H73.8401V10.2177ZM72.2893 10.2177H75.0504C74.9243 10.8338 74.7856 11.4747 74.6343 12.1402C74.4831 12.7934 74.3318 13.4219 74.1805 14.0257C74.0292 14.6296 73.8842 15.1719 73.7455 15.6525L70.9844 15.3567C71.1357 14.8884 71.287 14.3647 71.4383 13.7854C71.6022 13.2062 71.7598 12.6085 71.9111 11.9923C72.0624 11.3761 72.1884 10.7846 72.2893 10.2177ZM73.424 13.1199H84.8467V15.3382H72.7432L73.424 13.1199ZM84.128 13.1199H86.8891C86.8891 13.1199 86.8828 13.237 86.8702 13.4712C86.8702 13.693 86.8576 13.884 86.8324 14.0442C86.7568 15.2397 86.6559 16.1701 86.5298 16.8356C86.4163 17.4888 86.2335 17.9509 85.9814 18.2221C85.7544 18.4685 85.5086 18.6411 85.2438 18.7397C84.9917 18.8506 84.708 18.9245 84.3928 18.9615C84.1154 18.9985 83.7624 19.0231 83.3337 19.0354C82.9051 19.0478 82.4512 19.0478 81.9721 19.0354C81.9595 18.6411 81.8775 18.2159 81.7262 17.7599C81.5876 17.3039 81.411 16.9157 81.1967 16.5953C81.5623 16.6323 81.9091 16.6569 82.2369 16.6692C82.5773 16.6816 82.8357 16.6816 83.0122 16.6692C83.1509 16.6692 83.2707 16.6631 83.3716 16.6507C83.4724 16.6261 83.567 16.5768 83.6552 16.5029C83.7687 16.3796 83.8633 16.0838 83.9389 15.6155C84.0146 15.1472 84.0776 14.4201 84.128 13.4342V13.1199ZM77.2631 7.81448H79.9485V19.7934H77.2631V7.81448ZM76.7714 13.9518L78.8895 14.8391C78.4734 15.3567 78.0006 15.8559 77.4711 16.3365C76.9416 16.8171 76.3679 17.2669 75.7501 17.686C75.145 18.0926 74.5083 18.4624 73.8401 18.7951C73.1844 19.1402 72.5162 19.4298 71.8354 19.664C71.7093 19.4544 71.5454 19.2141 71.3437 18.943C71.1546 18.6842 70.9466 18.4254 70.7196 18.1666C70.5053 17.9201 70.3036 17.7168 70.1144 17.5566C70.7701 17.384 71.4194 17.1684 72.0624 16.9096C72.7054 16.6507 73.3168 16.3673 73.8968 16.0592C74.4894 15.7511 75.0315 15.4184 75.5232 15.061C76.0149 14.7036 76.431 14.3338 76.7714 13.9518ZM72.5162 3.56272H78.3978V5.59617H72.5162V3.56272ZM80.1566 3.56272H87.3241V5.59617H80.1566V3.56272ZM72.4406 2.04688L74.9937 2.73085C74.7289 3.34705 74.4074 3.95709 74.0292 4.56096C73.6635 5.16483 73.2727 5.73173 72.8566 6.26166C72.4406 6.79159 72.0308 7.25374 71.6274 7.64811C71.4635 7.50022 71.2428 7.34001 70.9655 7.16747C70.7007 6.98261 70.4233 6.80392 70.1334 6.63138C69.856 6.45885 69.6101 6.31712 69.3958 6.20621C70.0262 5.71325 70.6125 5.09089 71.1546 4.33913C71.6967 3.58737 72.1254 2.82328 72.4406 2.04688ZM80.2889 2.04688L82.8799 2.69388C82.5268 3.60585 82.0603 4.48702 81.4804 5.33737C80.913 6.18772 80.3331 6.89635 79.7405 7.46325C79.5766 7.31536 79.356 7.14899 79.0786 6.96413C78.8012 6.76695 78.5176 6.58209 78.2276 6.40955C77.9502 6.23702 77.7043 6.09529 77.49 5.98438C78.0952 5.51607 78.6436 4.93068 79.1353 4.22821C79.627 3.52575 80.0116 2.79864 80.2889 2.04688ZM73.0269 5.171L75.1828 4.2467C75.4602 4.59177 75.7375 4.9923 76.0149 5.44828C76.2923 5.89195 76.494 6.28015 76.6201 6.6129L74.3128 7.64811C74.212 7.31536 74.0355 6.91483 73.7833 6.44652C73.5312 5.97821 73.279 5.55304 73.0269 5.171ZM81.4047 5.171L83.6552 4.3761C83.9452 4.70885 84.2415 5.08473 84.5441 5.50374C84.8593 5.92276 85.0988 6.29247 85.2627 6.6129L82.8799 7.50022C82.7538 7.1798 82.5457 6.80392 82.2558 6.37258C81.9784 5.92892 81.6947 5.52839 81.4047 5.171Z"
                                fill="#D32F2F" />
                            <path d="M88.7992 9.3673H106.425V12.3066H88.7992V9.3673Z" fill="#D32F2F" />
                            <path
                                d="M124.353 6.57592C124.227 6.77311 124.095 7.00726 123.956 7.27839C123.83 7.53719 123.717 7.80832 123.616 8.09177C123.452 8.59705 123.225 9.1886 122.935 9.86642C122.645 10.5442 122.286 11.2529 121.857 11.9923C121.428 12.7317 120.924 13.4527 120.344 14.1552C119.424 15.252 118.358 16.2379 117.148 17.1129C115.938 17.9756 114.443 18.7643 112.666 19.4791L109.943 17.1129C111.304 16.7062 112.451 16.2625 113.384 15.7819C114.33 15.3013 115.137 14.796 115.805 14.2661C116.473 13.7238 117.072 13.1569 117.602 12.5654C118.005 12.134 118.377 11.6349 118.718 11.068C119.071 10.5011 119.367 9.94036 119.606 9.38578C119.859 8.81888 120.022 8.33825 120.098 7.94388H114.084L115.105 5.41131C115.282 5.41131 115.547 5.41131 115.9 5.41131C116.253 5.41131 116.644 5.41131 117.072 5.41131C117.513 5.41131 117.942 5.41131 118.358 5.41131C118.787 5.41131 119.159 5.41131 119.474 5.41131C119.802 5.41131 120.029 5.41131 120.155 5.41131C120.47 5.41131 120.798 5.39283 121.138 5.35585C121.491 5.30656 121.788 5.24494 122.027 5.171L124.353 6.57592ZM118.283 3.58121C118.018 3.95092 117.759 4.34529 117.507 4.7643C117.255 5.18332 117.066 5.49758 116.94 5.70709C116.486 6.4835 115.925 7.27839 115.257 8.09177C114.601 8.89283 113.876 9.66307 113.082 10.4025C112.288 11.1296 111.468 11.7828 110.623 12.362L108.051 10.4949C108.883 9.98966 109.615 9.47821 110.245 8.96061C110.875 8.443 111.418 7.93156 111.872 7.42628C112.325 6.921 112.716 6.44036 113.044 5.98438C113.384 5.51607 113.681 5.09089 113.933 4.70885C114.109 4.45004 114.292 4.11114 114.481 3.69212C114.683 3.26078 114.834 2.86642 114.935 2.50902L118.283 3.58121Z"
                                fill="#D32F2F" />
                            <path
                                d="M141.431 3.50726C141.418 3.77839 141.399 4.08033 141.374 4.41307C141.361 4.7335 141.355 5.09705 141.355 5.50374C141.355 5.86114 141.355 6.29247 141.355 6.79776C141.355 7.29071 141.355 7.78367 141.355 8.27663C141.355 8.76959 141.355 9.1886 141.355 9.53367C141.355 10.458 141.298 11.2775 141.185 11.9923C141.084 12.7071 140.933 13.3418 140.731 13.8963C140.529 14.4509 140.283 14.9439 139.993 15.3752C139.716 15.8066 139.394 16.2071 139.029 16.5768C138.613 17.0081 138.127 17.4025 137.573 17.7599C137.03 18.105 136.482 18.4007 135.927 18.6472C135.372 18.8937 134.862 19.0909 134.395 19.2388L131.994 16.7617C132.977 16.5522 133.841 16.2687 134.584 15.9113C135.341 15.5416 136.003 15.0733 136.57 14.5064C136.885 14.1736 137.144 13.8409 137.346 13.5081C137.547 13.1631 137.699 12.7934 137.799 12.399C137.913 11.9923 137.989 11.5425 138.026 11.0495C138.077 10.5442 138.102 9.97117 138.102 9.33033C138.102 8.97293 138.102 8.55392 138.102 8.07328C138.102 7.59265 138.102 7.11818 138.102 6.64987C138.102 6.18156 138.102 5.79952 138.102 5.50374C138.102 5.09705 138.089 4.7335 138.064 4.41307C138.039 4.08033 138.007 3.77839 137.97 3.50726H141.431ZM132.674 3.67364C132.662 3.90779 132.643 4.12962 132.618 4.33913C132.605 4.53631 132.599 4.80128 132.599 5.13402C132.599 5.29423 132.599 5.53455 132.599 5.85497C132.599 6.16307 132.599 6.52047 132.599 6.92716C132.599 7.33385 132.599 7.75902 132.599 8.20269C132.599 8.63402 132.599 9.0592 132.599 9.47821C132.599 9.89723 132.599 10.2793 132.599 10.6243C132.599 10.9571 132.599 11.2221 132.599 11.4192C132.599 11.6534 132.605 11.9368 132.618 12.2696C132.643 12.6023 132.662 12.8919 132.674 13.1384H129.346C129.359 12.9536 129.377 12.6886 129.403 12.3435C129.428 11.9985 129.44 11.6842 129.44 11.4007C129.44 11.2036 129.44 10.9386 129.44 10.6059C129.44 10.2608 129.44 9.87874 129.44 9.45973C129.44 9.04071 129.44 8.61554 129.44 8.1842C129.44 7.74054 129.44 7.32152 129.44 6.92716C129.44 6.52047 129.44 6.16307 129.44 5.85497C129.44 5.53455 129.44 5.29423 129.44 5.13402C129.44 4.96149 129.434 4.7335 129.422 4.45004C129.409 4.16659 129.39 3.90779 129.365 3.67364H132.674Z"
                                fill="#D32F2F" />
                            <path
                                d="M147.993 5.18948C148.358 5.23878 148.768 5.27575 149.222 5.3004C149.689 5.31272 150.086 5.31888 150.414 5.31888C150.716 5.31888 151.088 5.31888 151.529 5.31888C151.983 5.31888 152.462 5.31888 152.967 5.31888C153.484 5.31888 154.007 5.31888 154.536 5.31888C155.066 5.31888 155.564 5.31888 156.03 5.31888C156.509 5.31888 156.925 5.31888 157.279 5.31888C157.644 5.31888 157.915 5.31888 158.092 5.31888C158.495 5.31888 158.899 5.30656 159.302 5.28191C159.706 5.25726 160.046 5.22645 160.323 5.18948V8.443C160.046 8.43068 159.687 8.41835 159.245 8.40603C158.817 8.38138 158.432 8.36906 158.092 8.36906C157.915 8.36906 157.632 8.36906 157.241 8.36906C156.862 8.36906 156.415 8.36906 155.898 8.36906C155.381 8.36906 154.845 8.36906 154.29 8.36906C153.736 8.36906 153.2 8.36906 152.683 8.36906C152.166 8.36906 151.706 8.36906 151.302 8.36906C150.912 8.36906 150.622 8.36906 150.432 8.36906C150.054 8.36906 149.638 8.37522 149.184 8.38754C148.73 8.39987 148.333 8.41835 147.993 8.443V5.18948ZM146.423 14.1736C146.827 14.1983 147.262 14.2291 147.728 14.2661C148.195 14.2907 148.623 14.303 149.014 14.303C149.191 14.303 149.493 14.303 149.922 14.303C150.351 14.303 150.855 14.303 151.435 14.303C152.027 14.303 152.658 14.303 153.326 14.303C153.994 14.303 154.656 14.303 155.312 14.303C155.98 14.303 156.604 14.303 157.184 14.303C157.777 14.303 158.281 14.303 158.697 14.303C159.126 14.303 159.428 14.303 159.605 14.303C159.945 14.303 160.323 14.2907 160.739 14.2661C161.155 14.2414 161.54 14.2106 161.893 14.1736V17.5935C161.527 17.5566 161.124 17.5257 160.683 17.5011C160.254 17.4765 159.895 17.4641 159.605 17.4641C159.428 17.4641 159.126 17.4641 158.697 17.4641C158.281 17.4641 157.777 17.4641 157.184 17.4641C156.604 17.4641 155.98 17.4641 155.312 17.4641C154.656 17.4641 153.994 17.4641 153.326 17.4641C152.658 17.4641 152.027 17.4641 151.435 17.4641C150.855 17.4641 150.351 17.4641 149.922 17.4641C149.493 17.4641 149.191 17.4641 149.014 17.4641C148.623 17.4641 148.188 17.4765 147.709 17.5011C147.23 17.5257 146.801 17.5566 146.423 17.5935V14.1736Z"
                                fill="#D32F2F" />
                            <path
                                d="M173.562 6.8717C173.662 7.06888 173.782 7.35233 173.921 7.72205C174.072 8.09177 174.23 8.48614 174.394 8.90515C174.558 9.31184 174.703 9.70004 174.829 10.0698C174.967 10.4395 175.074 10.7353 175.15 10.9571L172.408 11.8814C172.345 11.6472 172.25 11.3515 172.124 10.9941C171.998 10.6367 171.859 10.2608 171.708 9.86642C171.557 9.45973 171.406 9.07152 171.254 8.70181C171.103 8.31976 170.964 7.99934 170.838 7.74054L173.562 6.8717ZM180.616 8.38754C180.489 8.74494 180.382 9.04688 180.294 9.29335C180.218 9.53983 180.149 9.77399 180.086 9.99582C179.846 10.8831 179.519 11.7828 179.103 12.6948C178.699 13.5944 178.182 14.4448 177.552 15.2458C176.669 16.3673 175.661 17.3224 174.526 18.1111C173.404 18.9122 172.276 19.5284 171.141 19.9597L168.739 17.5566C169.407 17.384 170.132 17.1191 170.914 16.7617C171.696 16.4043 172.452 15.9668 173.183 15.4492C173.927 14.9316 174.558 14.3523 175.074 13.7115C175.49 13.1939 175.862 12.59 176.19 11.8999C176.518 11.2097 176.783 10.4765 176.985 9.70004C177.199 8.91131 177.331 8.1349 177.382 7.37082L180.616 8.38754ZM169.174 7.86994C169.313 8.12874 169.464 8.443 169.628 8.81272C169.792 9.18244 169.956 9.57064 170.12 9.97733C170.283 10.384 170.441 10.7784 170.592 11.1604C170.744 11.5302 170.863 11.8506 170.952 12.1217L168.153 13.1384C168.077 12.8919 167.964 12.5715 167.812 12.1772C167.674 11.7828 167.516 11.3699 167.34 10.9386C167.176 10.5073 167.012 10.1067 166.848 9.73702C166.684 9.35497 166.539 9.05304 166.413 8.83121L169.174 7.86994Z"
                                fill="#D32F2F" />
                            <path
                                d="M200 6.57592C199.874 6.77311 199.742 7.00726 199.603 7.27839C199.477 7.53719 199.363 7.80832 199.263 8.09177C199.099 8.59705 198.872 9.1886 198.582 9.86642C198.292 10.5442 197.932 11.2529 197.504 11.9923C197.075 12.7317 196.571 13.4527 195.991 14.1552C195.07 15.252 194.005 16.2379 192.795 17.1129C191.584 17.9756 190.09 18.7643 188.313 19.4791L185.589 17.1129C186.951 16.7062 188.098 16.2625 189.031 15.7819C189.977 15.3013 190.784 14.796 191.452 14.2661C192.12 13.7238 192.719 13.1569 193.249 12.5654C193.652 12.134 194.024 11.6349 194.364 11.068C194.717 10.5011 195.014 9.94036 195.253 9.38578C195.505 8.81888 195.669 8.33825 195.745 7.94388H189.731L190.752 5.41131C190.929 5.41131 191.194 5.41131 191.547 5.41131C191.9 5.41131 192.29 5.41131 192.719 5.41131C193.16 5.41131 193.589 5.41131 194.005 5.41131C194.434 5.41131 194.806 5.41131 195.121 5.41131C195.449 5.41131 195.676 5.41131 195.802 5.41131C196.117 5.41131 196.445 5.39283 196.785 5.35585C197.138 5.30656 197.434 5.24494 197.674 5.171L200 6.57592ZM193.929 3.58121C193.665 3.95092 193.406 4.34529 193.154 4.7643C192.902 5.18332 192.713 5.49758 192.587 5.70709C192.133 6.4835 191.572 7.27839 190.904 8.09177C190.248 8.89283 189.523 9.66307 188.729 10.4025C187.934 11.1296 187.115 11.7828 186.27 12.362L183.698 10.4949C184.53 9.98966 185.262 9.47821 185.892 8.96061C186.522 8.443 187.064 7.93156 187.518 7.42628C187.972 6.921 188.363 6.44036 188.691 5.98438C189.031 5.51607 189.328 5.09089 189.58 4.70885C189.756 4.45004 189.939 4.11114 190.128 3.69212C190.33 3.26078 190.481 2.86642 190.582 2.50902L193.929 3.58121Z"
                                fill="#D32F2F" />
                        </svg>